<?xml version="1.0" encoding="UTF-8" standalone="no"?>
<!-- Created with Inkscape (http://www.inkscape.org/) -->

<svg
   xmlns:dc="http://purl.org/dc/elements/1.1/"
   xmlns:cc="http://creativecommons.org/ns#"
   xmlns:rdf="http://www.w3.org/1999/02/22-rdf-syntax-ns#"
   xmlns:svg="http://www.w3.org/2000/svg"
   xmlns="http://www.w3.org/2000/svg"
   xmlns:sodipodi="http://sodipodi.sourceforge.net/DTD/sodipodi-0.dtd"
   xmlns:inkscape="http://www.inkscape.org/namespaces/inkscape"
   width="512"
   height="512"
   viewBox="0 0 135.46666 135.46667"
   version="1.1"
   id="svg8"
   inkscape:version="0.92.4 (5da689c313, 2019-01-14)"
   sodipodi:docname="agile.svg">
  <defs
     id="defs2" />
  <sodipodi:namedview
     id="base"
     pagecolor="#ffffff"
     bordercolor="#666666"
     borderopacity="1.0"
     inkscape:pageopacity="0.0"
     inkscape:pageshadow="2"
     inkscape:zoom="0.71914062"
     inkscape:cx="703.89757"
     inkscape:cy="412.11358"
     inkscape:document-units="mm"
     inkscape:current-layer="layer1"
     showgrid="true"
     units="px"
     inkscape:showpageshadow="false"
     inkscape:window-width="1366"
     inkscape:window-height="705"
     inkscape:window-x="-8"
     inkscape:window-y="-8"
     inkscape:window-maximized="1" />
  <metadata
     id="metadata5">
    <rdf:RDF>
      <cc:Work
         rdf:about="">
        <dc:format>image/svg+xml</dc:format>
        <dc:type
           rdf:resource="http://purl.org/dc/dcmitype/StillImage" />
        <dc:title />
      </cc:Work>
    </rdf:RDF>
  </metadata>
  <g
     inkscape:label="Layer 1"
     inkscape:groupmode="layer"
     id="layer1"
     transform="translate(0,-161.53332)">
    <g
       id="g1035"
       transform="matrix(1.0819804,0,0,1.1299184,-6.4466024,-27.349245)"
       style="stroke-width:3.35009623;fill:none;stroke:#000000;stroke-opacity:1;stroke-miterlimit:4;stroke-dasharray:none">
      <path
         d="m 61.677865,175.33129 c -5.219779,0.51201 -9.923316,1.56447 -13.909851,3.1005 -16.577102,6.3432 -28.221226,21.02078 -30.572995,38.54284 -0.200761,1.6498 -0.401522,3.72628 -0.401522,4.60807 v 1.62136 l -2.237048,0.0853 -2.237048,0.0853 3.871814,4.83563 c 3.613694,4.49429 3.986535,4.83564 4.932979,4.92097 1.319284,0.11378 1.405325,0.0285 5.822061,-5.43298 l 3.613694,-4.46585 H 28.26554 25.971132 v -1.36535 c 0,-0.73957 0.200761,-2.61693 0.430201,-4.18141 1.950248,-12.85709 9.779917,-23.46703 21.510081,-29.18446 12.733968,-6.17255 27.360822,-5.09164 39.205703,2.90138 4.789574,3.27116 9.952,9.04548 12.418485,13.90956 0.697748,1.12505 2.126298,2.51525 2.126298,2.51525 0,0 1.80545,-0.34679 4.06861,-2.20236 3.27339,-2.68386 2.95955,-3.10016 0.94644,-6.45699 -6.940583,-12.20287 -19.502469,-20.79323 -33.985923,-23.26793 -2.552529,-0.45512 -8.976873,-0.76801 -11.013162,-0.5689 z"
         id="path54"
         style="fill:none;stroke:#000000;stroke-width:3.35009623;stroke-linecap:round;stroke-linejoin:round;stroke-miterlimit:4;stroke-dasharray:none;stroke-opacity:1"
         inkscape:connector-curvature="0"
         sodipodi:nodetypes="cccscccccccccscccccscccc" />
      <path
         sodipodi:nodetypes="ccccccccccscccccccccccc"
         d="m 108.87786,214.0448 c -0.40152,0.45512 -2.26572,2.67382 -4.15861,4.97786 0,0 -3.88672,4.23019 -3.41293,4.20984 h 2.35176 2.35177 l -0.17208,2.47471 c -1.26192,17.46517 -13.479648,31.40317 -31.031876,35.44235 -2.52385,0.59734 -3.412933,0.59734 -35.649374,0.76801 l -27.94602,-0.2257 v 0 c -0.756416,0.50785 -1.089844,1.82048 -1.089844,4.46585 0,2.92983 -0.03508,3.23069 0.61074,3.89302 0,0 0.181655,0.44344 0.717003,0.71112 l 28.138323,0.17275 c 29.769952,-0.0853 33.469685,-0.14223 35.649374,-0.56891 10.324838,-2.04803 18.527348,-6.34321 25.668704,-13.42599 8.57534,-8.47658 13.2502,-18.77363 14.08193,-30.94805 l 0.20076,-2.75916 h 2.26573 2.23705 c 0.48219,0 -3.4703,-4.35207 -3.4703,-4.35207 -1.89289,-2.36092 -3.78578,-4.60807 -4.15862,-4.97785 -1.00379,-0.88179 -2.26572,-0.82491 -3.18349,0.14222 z"
         id="path58"
         style="fill:none;stroke:#000000;stroke-width:3.35009623;stroke-miterlimit:4;stroke-dasharray:none;stroke-opacity:1"
         inkscape:connector-curvature="0" />
      <path
         d="m 26.258855,239.92352 -3.019795,3.03746 1.344951,2.42488 c 1.522587,2.80773 4.263241,6.58541 6.166473,8.52531 l 1.294199,1.35282 h 6.724753 6.699381 c 1.122216,0 -2.766033,-1.83779 -2.766033,-1.83779 -5.075286,-3.36929 -9.643043,-8.72952 -12.155312,-14.29395 -0.558282,-1.2252 -1.065811,-2.24619 -1.141939,-2.24619 -0.07613,0 -1.497207,1.37834 -3.146678,3.03746 z"
         id="path60"
         style="fill:none;stroke:#000000;stroke-width:3.35009623;stroke-miterlimit:4;stroke-dasharray:none;stroke-opacity:1"
         inkscape:connector-curvature="0"
         sodipodi:nodetypes="scccccsccss" />
      <path
         sodipodi:nodetypes="ccccccscccccccsc"
         d="m 120.00342,259.30682 v 2.27559 h -6.32368 l -6.81297,-0.37543 -1.85722,2.04573 c -2.6754,2.50315 -4.17174,4.16091 -7.017401,5.92449 0,0 -3.397946,1.50758 -2.432188,1.50758 h 12.233899 12.20956 v 2.27559 2.30403 c -0.003,0.38362 4.13472,-3.92539 4.13472,-3.92539 4.13472,-3.89695 4.57251,-4.52274 4.30497,-5.85965 -0.0973,-0.36979 -1.79981,-2.19025 -4.30497,-4.55119 0,0 -4.13472,-4.35202 -4.13472,-3.92539 z"
         id="path62"
         style="fill:none;stroke:#000000;stroke-width:3.35009623;stroke-miterlimit:4;stroke-dasharray:none;stroke-opacity:1"
         inkscape:connector-curvature="0" />
      <path
         inkscape:connector-curvature="0"
         id="path1016"
         d="m 63.412705,204.57268 v 21.95248 l 11.009121,8.60299 h -0.323798"
         style="fill:none;stroke:#000000;stroke-width:3.35009623;stroke-linecap:round;stroke-linejoin:round;stroke-miterlimit:4;stroke-dasharray:none;stroke-opacity:1" />
    </g>
  </g>
</svg>
